<?xml version="1.0" encoding="UTF-8" standalone="no"?>
<!DOCTYPE svg PUBLIC "-//W3C//DTD SVG 1.1//EN" "http://www.w3.org/Graphics/SVG/1.1/DTD/svg11.dtd">
<svg width="100%" height="100%" viewBox="0 0 603 473" version="1.1" xmlns="http://www.w3.org/2000/svg" xmlns:xlink="http://www.w3.org/1999/xlink" xml:space="preserve" xmlns:serif="http://www.serif.com/" style="fill-rule:evenodd;clip-rule:evenodd;stroke-linecap:round;stroke-linejoin:round;stroke-miterlimit:1.5;">
    <g id="Logo" transform="matrix(0.411607,0,0,0.411607,-234.706,-453.617)">
        <g id="Gray-Face" serif:id="Gray Face" transform="matrix(5.33293,0,0,6.28537,-6010.37,-4231.51)">
            <g transform="matrix(0.11129,0,0,0.0944258,1233.02,699.342)">
                <path d="M1112.11,3092.26C1006.1,3293.78 878.399,3416.31 734.906,3390.66C31.037,3264.84 14.271,1869.03 36.434,1838.92C54.47,1814.41 48.105,1794.35 111.171,1786.93C177.228,1779.16 579.121,1869.36 614.973,1837.98C627.598,1826.93 728.847,1798.12 838.316,1747.26C900.991,1718.13 967.978,1671.02 1023.46,1645.5C1073.59,1622.44 1114.13,1619.34 1137.23,1621.29C1137.23,1621.29 1163.43,1636.13 1180.99,1687.13C1193.24,1722.74 1190.86,1773.29 1198.07,1817.82C1206.56,1870.18 1220.84,1941.41 1215.71,1966.33C1214.72,1971.14 1206.42,1995.47 1202.77,2009.03C1195.18,2037.15 1188.8,2060.32 1177.13,2089.85C1155.71,2144.07 1131.63,2194.11 1118.08,2269.97C1090.26,2425.6 1065.92,2587.35 1065.62,2688.29C1065.58,2703.25 1069.39,2814.04 1083.59,2883.42C1093.63,2932.49 1093.83,2981.19 1098.82,3019.32C1101.62,3040.78 1110.23,3061.11 1112.35,3073.67C1113.14,3078.32 1110.43,3087.99 1112.11,3092.26Z" style="fill:#3c3d41;"/>
            </g>
            <path d="M1356.79,991.331C1344.99,1010.36 1330.78,1021.93 1314.81,1019.51C1236.47,1007.63 1234.61,875.827 1237.07,872.984C1239.08,870.67 1238.37,868.775 1245.39,868.075C1252.74,867.341 1297.47,875.858 1301.46,872.895C1302.86,871.851 1314.13,869.131 1326.31,864.328C1333.29,861.579 1340.74,857.13 1346.92,854.72C1352.5,852.543 1357.01,852.25 1359.58,852.434C1359.58,852.434 1362.5,853.835 1364.45,858.651C1365.81,862.013 1365.55,866.786 1366.35,870.991C1367.3,875.936 1368.88,882.662 1368.31,885.015C1368.2,885.469 1367.28,887.766 1366.87,889.047C1366.03,891.702 1365.32,893.89 1364.02,896.678C1361.64,901.798 1358.96,906.522 1357.45,913.686C1354.35,928.381 1351.64,943.655 1351.61,953.186C1351.61,954.599 1352.03,965.06 1353.61,971.612C1354.73,976.245 1354.75,980.844 1355.31,984.444C1355.62,986.47 1356.58,988.39 1356.81,989.576C1356.9,990.015 1356.6,990.928 1356.79,991.331Z" style="fill:none;stroke:#000;stroke-width:0.42px;"/>
            <path d="M1317.1,902.668C1320.91,902.369 1323.25,906.979 1328.12,907.492C1338.23,908.557 1348.75,908.785 1348.5,909.033C1350.21,909.924 1351.58,911.004 1352.64,912.255C1353.83,913.65 1354.63,915.259 1355.1,917.057C1355.12,920.388 1351.96,920.661 1346.31,919.062C1343.57,920.227 1341.39,921.079 1337.93,921.84C1336.11,922.24 1331.74,923.255 1331.04,923.299C1323.69,923.758 1309.62,903.252 1317.1,902.668Z" style="fill:#fff;"/>
            <path d="M1317.1,902.668C1320.91,902.369 1323.25,906.979 1328.12,907.492C1338.23,908.557 1348.75,908.785 1348.5,909.033C1350.21,909.924 1351.58,911.004 1352.64,912.255C1353.83,913.65 1354.63,915.259 1355.1,917.057C1355.12,920.388 1351.95,920.553 1346.3,918.954C1343.56,920.119 1341.39,921.079 1337.93,921.84C1336.11,922.24 1331.74,923.255 1331.04,923.299C1323.69,923.758 1309.62,903.252 1317.1,902.668Z" style="fill:none;stroke:#000;stroke-width:0.42px;"/>
            <path d="M1288.11,907.451C1295.47,906 1287.43,929.537 1280.23,931.075C1279.54,931.221 1275.07,931.419 1273.21,931.523C1269.67,931.721 1267.32,931.381 1264.37,930.997C1259.35,934.059 1256.26,934.753 1255.38,931.538C1255.35,929.681 1255.69,927.915 1256.46,926.252C1257.15,924.76 1258.17,923.352 1259.58,922.035C1259.27,921.862 1269.34,918.812 1278.79,915.064C1283.35,913.258 1284.36,908.19 1288.11,907.451Z" style="fill:#fff;"/>
            <g transform="matrix(-0.963089,0.269184,0.269184,0.963089,2313.61,-316.44)">
                <path d="M1317.1,902.668C1320.91,902.369 1323.25,906.979 1328.12,907.492C1338.23,908.557 1348.75,908.785 1348.5,909.033C1350.21,909.924 1351.58,911.004 1352.64,912.255C1353.83,913.65 1354.63,915.259 1355.1,917.057C1355.12,920.388 1351.95,920.553 1346.3,918.954C1343.56,920.119 1341.39,921.079 1337.93,921.84C1336.11,922.24 1331.74,923.255 1331.04,923.299C1323.69,923.758 1309.62,903.252 1317.1,902.668Z" style="fill:none;stroke:#000;stroke-width:0.4px;"/>
            </g>
            <path d="M1320.74,981.933C1320.74,981.933 1309.78,981.596 1301.53,986.169C1296.61,988.901 1291.59,993.793 1289.58,992.212C1277.71,982.879 1284.6,968.136 1294.23,962.596C1299.98,959.29 1307.77,962.226 1309.67,961.873C1311.55,961.526 1318.89,957.311 1323.68,958.031C1332.3,959.327 1337.32,964.569 1341.36,971.093C1341.75,977.612 1341.02,984.133 1339.76,984.044C1334.76,984.738 1330.72,982.656 1320.74,981.933Z" style="fill:#fff;"/>
            <path d="M1320.74,981.933C1330.72,982.656 1334.76,984.738 1339.76,984.044C1341.02,984.133 1341.75,977.612 1341.36,971.093C1337.32,964.569 1332.3,959.327 1323.68,958.031C1318.89,957.311 1311.55,961.526 1309.67,961.873C1307.77,962.226 1299.98,959.29 1294.23,962.596C1284.6,968.136 1277.71,982.879 1289.58,992.212C1291.59,993.793 1296.61,988.901 1301.53,986.169C1309.78,981.596 1320.74,981.933 1320.74,981.933Z" style="fill:none;stroke:#000;stroke-width:0.42px;"/>
        </g>
        <g id="Red-Face" serif:id="Red Face" transform="matrix(5.33293,0,0,6.28537,-6010.37,-4231.51)">
            <path d="M1356.7,991.359C1381.13,1049.53 1422.59,1023.33 1436.59,1014.57C1448.64,1005.66 1461.13,994.556 1474.19,980.459C1488.17,956.805 1505.85,908.602 1505.57,901.517C1505.57,901.517 1504.81,898.73 1503.37,896.907C1500.86,893.739 1493.1,889.905 1485.41,890.86C1482.09,891.272 1453.8,887.15 1439.85,883.492C1415.31,867.885 1399.1,855.002 1392.05,850.967C1384.12,846.414 1376.25,863.989 1367.53,886.367C1364.14,893.063 1360.8,899.428 1358.4,905.886C1346.88,936.887 1347.11,965.401 1356.7,991.359" style="fill:#ae1545;stroke:#000;stroke-width:0.42px;"/>
            <path d="M1384.39,904.284C1382.88,904.659 1404.88,885.417 1418.35,914.179C1419.4,916.414 1419.82,918.618 1417.42,920.297C1415.02,921.976 1404.48,910.49 1401.45,908.803C1396.92,906.282 1381.42,909.354 1384.39,904.284Z" style="fill:#fff;"/>
            <path d="M1384.39,904.284C1382.88,904.659 1404.88,885.417 1418.35,914.179C1419.4,916.414 1419.82,918.618 1417.42,920.297C1415.02,921.976 1404.48,910.49 1401.45,908.803C1396.92,906.282 1381.42,909.354 1384.39,904.284Z" style="fill:none;stroke:#000;stroke-width:0.42px;"/>
            <path d="M1469.96,940.095C1468.3,945.731 1459.92,932.332 1454.98,930.756C1451.68,929.702 1436.09,929.886 1435.67,926.988C1435.26,924.09 1437.14,922.883 1439.49,922.116C1469.68,912.245 1470.72,941.451 1469.96,940.095Z" style="fill:#fff;"/>
            <g transform="matrix(-0.684711,-0.728815,-0.728815,0.684711,3076.92,1329.88)">
                <path d="M1384.39,904.284C1382.88,904.659 1404.88,885.417 1418.35,914.179C1419.4,916.414 1419.82,918.618 1417.42,920.297C1415.02,921.976 1404.48,910.49 1401.45,908.803C1396.92,906.282 1381.42,909.354 1384.39,904.284Z" style="fill:none;stroke:#000;stroke-width:0.46px;"/>
            </g>
            <path d="M1386.7,943.099C1388.82,942.37 1397.03,950.716 1411.68,957.859C1420.64,962.226 1433.03,962.617 1443.22,964.582C1454.83,966.82 1423.19,1002.1 1406.95,998.51C1401.71,997.352 1385.88,989.98 1382.89,980.381C1378.53,966.435 1382.29,941.916 1386.7,943.099Z" style="fill:#fff;"/>
            <path d="M1386.7,943.099C1388.82,942.37 1397.03,950.716 1411.68,957.859C1420.64,962.226 1433.03,962.617 1443.22,964.582C1454.83,966.82 1423.19,1002.1 1406.95,998.51C1401.71,997.352 1385.88,989.98 1382.89,980.381C1378.53,966.435 1382.29,941.916 1386.7,943.099Z" style="fill:none;stroke:#000;stroke-width:0.42px;"/>
        </g>
    </g>
</svg>
